# xmcd
#
# Track frame offsets: 
#        150
#        29233
#        56081
#        72976
#        109322
#        144011
#        173136
#        230456
#
# Disc length: 3498 seconds
#
# Revision: 0
# Processed by: cddbd v1.4PL0 Copyright (c) Steve Scherf et al.
# Submitted via: ExactAudioCopy v0.90b4
#
DISCID=710da808
DTITLE=Van Morrison - If You Meet Me By The Lamplight I'll Be Around, 
DTITLE=disc 2
DYEAR=1999
DGENRE=Celtic
TTITLE0=Tupelo Honey
TTITLE1=Georgia
TTITLE2=Jackie Wilson Said ...
TTITLE3=Philosophers Stone
TTITLE4=Help Me
TTITLE5=The Healing Game
TTITLE6=See Me Through > Soldier Of Fortune > Burning Ground
TTITLE7=Gloria > Who Do You Love ?
EXTD=
EXTT0=
EXTT1=
EXTT2=
EXTT3=
EXTT4=
EXTT5=
EXTT6=
EXTT7=
PLAYORDER=
